<?xml version="1.0" standalone="no"?>
<!DOCTYPE svg PUBLIC "-//W3C//DTD SVG 20010904//EN"
 "http://www.w3.org/TR/2001/REC-SVG-20010904/DTD/svg10.dtd">
<svg version="1.0" xmlns="http://www.w3.org/2000/svg"
 width="720.000000pt" height="720.000000pt" viewBox="0 0 720.000000 720.000000"
 preserveAspectRatio="xMidYMid meet">

<g transform="translate(0.000000,720.000000) scale(0.100000,-0.100000)"
fill="#000000" stroke="none">
<path d="M5895 7076 c-567 -190 -893 -321 -1285 -517 -1120 -561 -1790 -1278
-2229 -2386 -32 -82 -71 -185 -86 -230 -14 -46 -27 -83 -28 -83 -1 -1 -510
-119 -1132 -263 l-1130 -263 0 -397 0 -398 480 -285 c264 -156 481 -288 483
-292 1 -5 -41 -45 -95 -90 -129 -106 -354 -333 -448 -452 -469 -588 -501
-1097 -82 -1300 92 -44 207 -74 342 -90 138 -15 220 -12 378 14 784 133 1197
468 1505 1222 113 276 217 623 437 1464 76 289 143 530 149 536 8 8 1460 349
1521 358 6 0 14 -110 22 -294 12 -318 17 -366 39 -374 8 -3 14 -1 14 5 0 6 7
9 15 5 8 -3 15 -1 15 5 0 6 7 9 15 5 8 -3 15 -1 15 5 0 6 7 9 15 5 8 -3 15 -1
15 5 0 6 7 9 15 5 8 -3 15 -1 15 5 0 6 7 8 16 5 10 -4 13 -2 8 6 -5 7 0 9 14
6 14 -4 20 -2 15 5 -4 6 2 8 15 5 14 -4 20 -2 15 5 -4 6 2 8 15 5 14 -4 20 -2
15 5 -4 6 2 8 15 5 14 -4 20 -2 15 5 -4 6 2 8 15 5 14 -4 20 -2 16 4 -4 6 2 8
16 3 16 -5 20 -4 15 5 -5 9 -2 10 13 6 12 -4 23 -2 28 5 4 8 3 9 -4 5 -9 -5
-12 12 -10 61 l1 68 7 -60 c4 -33 7 263 8 658 l2 719 -32 -7 c-18 -4 -395 -92
-838 -196 -443 -103 -806 -186 -808 -184 -8 7 76 186 141 299 338 591 904
1073 1572 1340 l110 44 6 -1366 c4 -752 10 -1384 14 -1404 8 -41 16 -46 35
-23 7 8 20 15 30 15 10 0 23 7 30 15 7 8 20 15 30 15 10 0 23 7 30 15 7 8 21
15 32 15 10 0 21 7 24 15 4 8 12 15 20 15 8 0 23 4 34 10 48 24 58 28 90 35
33 7 95 38 114 56 6 5 17 9 25 9 9 0 29 7 44 15 15 8 43 17 63 21 19 3 37 10
40 15 3 5 9 7 14 4 4 -3 21 2 36 10 16 8 37 15 46 15 9 0 19 4 22 9 3 5 23 12
43 16 21 4 43 10 48 14 15 12 98 31 107 25 4 -3 9 46 9 108 1 74 4 103 9 83 4
-16 8 788 9 1788 1 1724 0 1817 -16 1817 -10 0 -171 -52 -358 -114z m-3789
-4063 c-3 -10 -32 -117 -65 -238 -282 -1037 -505 -1544 -805 -1838 -166 -161
-374 -247 -598 -247 -109 0 -162 19 -198 70 -29 41 -37 118 -20 192 18 79 110
260 187 368 137 191 393 431 607 570 53 35 96 64 96 66 0 1 -241 143 -535 316
-294 172 -535 315 -535 319 0 3 165 42 368 88 584 131 1091 249 1297 301 226
57 208 54 201 33z"/>
</g>
</svg>
